<svg xmlns="http://www.w3.org/2000/svg" version="1.1" xmlns:xlink="http://www.w3.org/1999/xlink" xmlns:svgjs="http://svgjs.dev/svgjs" width="1500" height="431" viewBox="0 0 1500 431"><g transform="matrix(1,0,0,1,-0.9090909090909918,-0.10643267820387337)"><svg viewBox="0 0 396 114" data-background-color="#ffffff" preserveAspectRatio="xMidYMid meet" height="431" width="1500" xmlns="http://www.w3.org/2000/svg" xmlns:xlink="http://www.w3.org/1999/xlink"><g id="tight-bounds" transform="matrix(1,0,0,1,0.2400000000000091,0.028151566856706722)"><svg viewBox="0 0 395.52 113.94369686628657" height="113.94369686628657" width="395.52"><g><svg viewBox="0 0 629.9406986399017 181.47697211155375" height="113.94369686628657" width="395.52"><g transform="matrix(1,0,0,1,0,25.081115537848603)"><svg viewBox="0 0 395.52 131.31474103585654" height="131.31474103585654" width="395.52"><g id="textblocktransform"><svg viewBox="0 0 395.52 131.31474103585654" height="131.31474103585654" width="395.52" id="textblock"><g><svg viewBox="0 0 395.52 131.31474103585654" height="131.31474103585654" width="395.52"><g transform="matrix(1,0,0,1,0,0)"><svg width="395.52" viewBox="2.25 -37.9 150.59 50" height="131.31474103585654" data-palette-color="#d1d38f"><g class="wordmark-text-0" data-fill-palette-color="primary" id="text-0"><path d="M22.55-33.45L21.85-29.4Q20.65-29.7 19.35-29.95L19.35-29.95Q18.2-30.2 16.73-30.38 15.25-30.55 13.65-30.55L13.65-30.55Q9.95-30.55 8.35-29.43 6.75-28.3 6.75-25.95L6.75-25.95Q6.8-24.1 8.1-22.83 9.4-21.55 11.35-20.48 13.3-19.4 15.63-18.38 17.95-17.35 19.9-16.03 21.85-14.7 23.18-12.93 24.5-11.15 24.5-8.6L24.5-8.6Q24.5-5.65 23.23-3.85 21.95-2.05 20-1.05 18.05-0.05 15.73 0.3 13.4 0.65 11.3 0.65L11.3 0.65Q9.3 0.65 7.65 0.4 6 0.15 4.8-0.15L4.8-0.15Q3.4-0.5 2.25-0.95L2.25-0.95 3.25-5Q4.4-4.5 5.7-4.15L5.7-4.15Q6.85-3.85 8.28-3.6 9.7-3.35 11.3-3.35L11.3-3.35Q13.25-3.35 14.88-3.6 16.5-3.85 17.7-4.4 18.9-4.95 19.58-5.85 20.25-6.75 20.25-8.05L20.25-8.05Q20.2-10 18.98-11.23 17.75-12.45 15.73-13.58 13.7-14.7 11.38-15.75 9.05-16.8 7.1-18.15 5.15-19.5 3.83-21.35 2.5-23.2 2.5-25.95L2.5-25.95Q2.5-27.55 3.05-29.1 3.6-30.65 4.93-31.85 6.25-33.05 8.38-33.8 10.5-34.55 13.65-34.55L13.65-34.55Q15.45-34.55 17.07-34.38 18.7-34.2 19.9-34L19.9-34Q21.3-33.75 22.55-33.45L22.55-33.45ZM46.3-24.85L45.5-21.5Q44.65-21.7 43.15-21.93 41.65-22.15 40.1-22.15L40.1-22.15Q37.85-22.15 36.42-21.25 35-20.35 34.2-18.93 33.4-17.5 33.1-15.78 32.8-14.05 32.8-12.4L32.8-12.4Q32.8-9.85 33.45-8.03 34.1-6.2 35.17-5.05 36.25-3.9 37.65-3.38 39.05-2.85 40.6-2.85L40.6-2.85Q41.65-2.85 42.62-2.98 43.6-3.1 44.42-3.28 45.25-3.45 46-3.7L46-3.7 46.8-0.35Q45.75-0.05 44.85 0.15 43.95 0.35 42.72 0.5 41.5 0.65 40.1 0.65L40.1 0.65Q37.35 0.65 35.2-0.05 33.05-0.75 31.57-2.3 30.1-3.85 29.32-6.35 28.55-8.85 28.55-12.45L28.55-12.45Q28.55-15.95 29.52-18.48 30.5-21 32.1-22.58 33.7-24.15 35.77-24.9 37.85-25.65 40.1-25.65L40.1-25.65Q41.3-25.65 42.42-25.53 43.55-25.4 44.4-25.25L44.4-25.25Q45.4-25.05 46.3-24.85L46.3-24.85ZM51.8 0L51.8-21.1Q51.8-22.25 51.55-24.7L51.55-24.7 55.25-25.2 55.65-21.55 55.7-21.55Q56.6-22.7 57.45-23.55 58.3-24.4 59.22-25.03 60.15-25.65 61-25.65L61-25.65Q62.15-25.7 64.2-25.4L64.2-25.4 63.3-21.55Q61.65-21.85 61-21.8L61-21.8Q60.15-21.8 59.2-21 58.25-20.2 57.55-19.3L57.55-19.3Q56.65-18.2 55.8-16.8L55.8-16.8 55.8 0 51.8 0ZM68.59 0L68.59-25.2 72.59-25.65 72.59 0 68.59 0ZM67.94-32.35L67.94-32.35Q67.94-33.5 68.72-34.27 69.49-35.05 70.64-35.05L70.64-35.05Q71.84-35.05 72.67-34.27 73.49-33.5 73.49-32.35L73.49-32.35Q73.49-31.2 72.67-30.43 71.84-29.65 70.64-29.65L70.64-29.65Q69.49-29.65 68.72-30.43 67.94-31.2 67.94-32.35ZM79.74-1.5L79.74-37.45 83.74-37.9 83.74-23Q84.84-23.75 86.04-24.3L86.04-24.3Q87.04-24.8 88.29-25.23 89.54-25.65 90.79-25.65L90.79-25.65Q92.84-25.65 94.67-24.85 96.49-24.05 97.87-22.45 99.24-20.85 100.04-18.4 100.84-15.95 100.84-12.6L100.84-12.6Q100.84-8.9 99.82-6.38 98.79-3.85 97.07-2.3 95.34-0.75 93.14-0.05 90.94 0.65 88.64 0.65L88.64 0.65Q86.34 0.65 84.67 0.33 82.99 0 81.89-0.4L81.89-0.4Q80.59-0.9 79.74-1.5L79.74-1.5ZM83.74-19.4L83.74-3.7Q84.39-3.45 85.14-3.28 85.89-3.1 86.77-2.98 87.64-2.85 88.64-2.85L88.64-2.85Q90.94-2.85 92.49-3.5 94.04-4.15 94.94-5.4 95.84-6.65 96.22-8.43 96.59-10.2 96.59-12.4L96.59-12.4Q96.59-14.15 96.22-15.9 95.84-17.65 95.04-19.03 94.24-20.4 93.07-21.28 91.89-22.15 90.34-22.15L90.34-22.15Q89.29-22.15 88.14-21.73 86.99-21.3 85.99-20.75L85.99-20.75Q84.84-20.15 83.74-19.4L83.74-19.4ZM124.54-3.95L125.29-0.6Q124.14-0.25 122.91 0 121.69 0.25 120.21 0.45 118.74 0.65 117.14 0.65L117.14 0.65Q114.64 0.65 112.49-0.05 110.34-0.75 108.74-2.3 107.14-3.85 106.21-6.33 105.29-8.8 105.29-12.4L105.29-12.4Q105.29-15.65 106.19-18.13 107.09-20.6 108.66-22.28 110.24-23.95 112.36-24.8 114.49-25.65 116.99-25.65L116.99-25.65Q119.44-25.65 121.24-24.7 123.04-23.75 124.21-22.13 125.39-20.5 125.96-18.32 126.54-16.15 126.54-13.75L126.54-13.75 125.79-11.55 109.64-11.55Q109.64-10 110.04-8.45 110.44-6.9 111.41-5.65 112.39-4.4 113.96-3.63 115.54-2.85 117.89-2.85L117.89-2.85Q119.39-2.85 120.64-3.03 121.89-3.2 122.81-3.43 123.74-3.65 124.54-3.95L124.54-3.95ZM109.79-14.75L122.39-14.75Q122.39-15.1 122.24-16.3 122.09-17.5 121.54-18.8 120.99-20.1 119.84-21.13 118.69-22.15 116.79-22.15L116.79-22.15Q114.69-22.15 113.34-21.28 111.99-20.4 111.19-19.2 110.39-18 110.09-16.75 109.79-15.5 109.79-14.75L109.79-14.75ZM138.79-0.65L128.74-25.15 132.99-25.15 137.69-13.8Q138.39-12.15 138.96-10.5 139.54-8.85 139.99-7.55L139.99-7.55Q140.54-6 140.94-4.55L140.94-4.55 140.99-4.55Q141.44-6 141.99-7.55L141.99-7.55Q142.44-8.85 143.04-10.5 143.64-12.15 144.29-13.8L144.29-13.8 148.64-25.15 152.84-25.15 140.94 4.85Q140.24 6.7 139.11 8.05 137.99 9.4 136.94 10.3L136.94 10.3Q135.69 11.35 134.34 12.1L134.34 12.1 132.39 8.65Q133.44 8.15 134.34 7.4L134.34 7.4Q135.14 6.75 135.94 5.78 136.74 4.8 137.24 3.45L137.24 3.45 138.79-0.65Z" fill="#d1d38f" data-fill-palette-color="primary"></path></g></svg></g></svg></g></svg></g></svg></g><g transform="matrix(1,0,0,1,426.52025880478084,0)"><svg viewBox="0 0 203.4204398351209 181.47697211155375" height="181.47697211155375" width="203.4204398351209"><g><svg xmlns="http://www.w3.org/2000/svg" xml:space="preserve" viewBox="8.386999999999999 13.004999999999999 84.192 75.11" x="0" y="0" height="181.47697211155375" width="203.4204398351209" class="icon-icon-0" data-fill-palette-color="accent" id="icon-0"><path d="M49.569 22.967c-9.975-5.691-20.677-9.125-31.045-9.962v58.351c10.367 0.814 21.05 4.154 31.045 9.699zM82.444 13.005c-10.368 0.838-21.071 4.271-31.045 9.962v58.087c9.993-5.545 20.679-8.885 31.045-9.699z" fill="#b3b666" data-fill-palette-color="accent"></path><path d="M49.229 84.073c0.814 0.278 1.671 0.29 2.485 0.012 11.657-5.043 23.865-7.313 35.798-6.79V19.524a67 67 0 0 0-3.24-0.055v53.594l-0.852 0.056c-10.672 0.697-21.732 4.177-32.021 10.048a2.83 2.83 0 0 1-1.83 0c-10.29-5.871-21.349-9.351-32.021-10.048l-0.854-0.056V19.469a66 66 0 0 0-3.239 0.055v57.771c11.932-0.524 24.114 1.735 35.774 6.778" fill="#b3b666" data-fill-palette-color="accent"></path><path d="M92.579 26.009c-1.07-0.149-2.157-0.228-3.237-0.335v53.55l-0.968-0.056c-12.195-0.699-25.06 1.777-36.975 7.065l-0.916 0.381-0.915-0.381c-11.917-5.288-24.781-7.765-36.976-7.065l-0.967 0.056v-53.55c-1.081 0.108-2.168 0.187-3.238 0.335v58.707a4.9 4.9 0 0 1 1.044 0.748c12.951-1.75 26.393-1.536 39.18 2.651a19 19 0 0 1 1.873-0.095c0.661 0 1.285 0.037 1.872 0.095 12.785-4.188 26.229-4.401 39.179-2.651 0 0 0.474-0.462 1.044-0.748z" fill="#b3b666" data-fill-palette-color="accent"></path></svg></g></svg></g></svg></g><defs></defs></svg><rect width="395.52" height="113.94369686628657" fill="none" stroke="none" visibility="hidden"></rect></g></svg></g></svg>