<svg id="ezK19VG0HEf1" xmlns="http://www.w3.org/2000/svg" xmlns:xlink="http://www.w3.org/1999/xlink" viewBox="0 0 300 300" shape-rendering="geometricPrecision" text-rendering="geometricPrecision" width="300" height="300"><ellipse rx="110.91572" ry="18.485953" transform="matrix(1.594641-.948717 3.493556 5.872106 35.550904 211.102132)" fill="#b3b666" stroke-width="0"/><ellipse rx="110.91572" ry="18.485953" transform="matrix(1.817304 0.374632-1.379545 6.692042 129.95849 221.800806)" fill="#b3b666" stroke-width="0"/><ellipse rx="110.91572" ry="18.485953" transform="matrix(1.960299-.244119 0.420175 3.374046 98.812601 41.555965)" fill="#b3b666" stroke-width="0"/><ellipse rx="110.91572" ry="18.485953" transform="matrix(1.975441-.000196 0.000337 3.400108-372.509626 193.881013)" fill="#b3b666" stroke-width="0"/><ellipse rx="110.91572" ry="18.485953" transform="matrix(1.806882 0.927248-1.997183 3.89181 185.765568 170.719365)" fill="#dee0b3" stroke-width="0" stroke-dashoffset="10"/><ellipse rx="110.91572" ry="18.485953" transform="matrix(2.07163 0.454045-.841517 3.839514 186.346045 118.660822)" fill="#b3b666" stroke-width="0"/><ellipse rx="110.91572" ry="18.485953" transform="matrix(2.046991 0 0 4.781687 147.839913 351.504947)" fill="#424242" stroke-width="0"/><ellipse rx="110.91572" ry="18.485953" transform="matrix(1.975223-.029356 0.050527 3.399733 174.23867 83.225858)" fill="#dee0b3" stroke-width="0"/><ellipse rx="110.91572" ry="18.485953" transform="matrix(1.703501-.385537 0.715566 3.161736 116.730575 48.790154)" fill="#b3b666" stroke-width="0"/><ellipse rx="110.91572" ry="18.485953" transform="matrix(1.168696-.695305 2.009723 3.378022 56.138861 23.634592)" fill="#dee0b3" stroke-width="0"/><ellipse rx="110.91572" ry="18.485953" transform="matrix(1.440638-.292872 0.783057 3.851862-.026284 6.028003)" fill="#b3b666" stroke-width="0"/></svg>
