<svg id="eHqXFG7LZ8N1" xmlns="http://www.w3.org/2000/svg" xmlns:xlink="http://www.w3.org/1999/xlink" viewBox="0 0 300 300" shape-rendering="geometricPrecision" text-rendering="geometricPrecision" width="300" height="300"><ellipse rx="110.91572" ry="18.485953" transform="matrix(1.594641-.948717 3.493556 5.872106 35.550904 211.102132)" fill="#b3b666" stroke-width="0"/><ellipse rx="110.91572" ry="18.485953" transform="matrix(1.960299-.244119 0.420175 3.374046 98.812601 41.555965)" fill="#b3b666" stroke-width="0"/><ellipse rx="110.91572" ry="18.485953" transform="matrix(1.975441-.000196 0.000337 3.400108-372.509626 193.881013)" fill="#b3b666" stroke-width="0"/><ellipse rx="110.91572" ry="18.485953" transform="matrix(1.871122 0.789629-1.700767 4.030175 182.373835 159.118204)" fill="#dee0b3" stroke-width="0"/><ellipse rx="110.91572" ry="18.485953" transform="matrix(2.097138 0.315943-.585563 3.88679 176.002293 103.928424)" fill="#efefe5" stroke-width="0"/><ellipse rx="110.91572" ry="18.485953" transform="matrix(2.046819-.026498 0.061898 4.781286 147.026637 334.117798)" fill="#424242" stroke-width="0"/><ellipse rx="110.91572" ry="18.485953" transform="matrix(1.975223-.029356 0.050527 3.399733 174.23867 83.225858)" fill="#b3b666" stroke-width="0"/><ellipse rx="110.91572" ry="18.485953" transform="matrix(1.703501-.385537 0.715566 3.161736 116.730575 48.790154)" fill="#dee0b3" stroke-width="0"/><ellipse rx="110.91572" ry="18.485953" transform="matrix(1.168696-.695305 2.009723 3.378022 33.033068 20.779911)" fill="#efefe5" stroke-width="0"/><ellipse rx="110.91572" ry="18.485953" transform="matrix(1.168696-.695305 2.009723 3.378022-1.600748 6.028003)" fill="#b3b666" stroke-width="0"/></svg>
